# xmcd
#
# Track frame offsets: 
#        150
#        14483
#        37099
#        58220
#        75453
#        103136
#        118425
#        133879
#        148554
#        167369
#
# Disc length: 2469 seconds
#
# Revision: 0
# Processed by: cddbd v1.5.2PL0 Copyright (c) Steve Scherf et al.
# Submitted via: ExactAudioCopy v1.2
#
DISCID=9009a30a
DTITLE=Eric and Ulrika Bibb - Pray Sing Love
DYEAR=2018
DGENRE=Blues
TTITLE0=So Loved
TTITLE1=Maybe I’ll Hear from You
TTITLE2=Between Young and Old
TTITLE3=You Were Made for Me
TTITLE4=What I Know
TTITLE5=Since I’ve Known You
TTITLE6=Dive Deep
TTITLE7=Show Me the Way
TTITLE8=The Last Place I Looked
TTITLE9=May Our Love
EXTD=
EXTT0=
EXTT1=
EXTT2=
EXTT3=
EXTT4=
EXTT5=
EXTT6=
EXTT7=
EXTT8=
EXTT9=
PLAYORDER=
